# xmcd
#
# Track frame offsets:
#	150
#	19927
#	36453
#	56366
#	74737
#	89616
#	104317
#	120787
#	133054
#	150391
#	166611
#	188070
#	205841
#	223251
#	240676
#	260082
#
# Disc length: 3716 seconds
#
# Revision: 0
# Processed by: cddbd v1.5.2PL0 Copyright (c) Steve Scherf et al.
# Submitted via: audiograbber 1.83.01
#
DISCID=e40e8210
DTITLE=George Strait - CK5046-03
DYEAR=2005
DGENRE=Country
TTITLE0=Carrying Your Love With Me
TTITLE1=King of the Mountain
TTITLE2=I Can Still Make Cheyenne
TTITLE3=One Night at a Time
TTITLE4=Today My World Slipped Away
TTITLE5=Round About Way
TTITLE6=I Just Want to Dance With You
TTITLE7=We Really Shouldn't Be Doing This
TTITLE8=Writte This Down
TTITLE9=The Best Day
TTITLE10=If You Can Do Anything Else
TTITLE11=Go On
TTITLE12=Living and Living Well
TTITLE13=Cowboys Life Us
TTITLE14=Desperately
TTITLE15=I Hate Everything
EXTD=
EXTT0=
EXTT1=
EXTT2=
EXTT3=
EXTT4=
EXTT5=
EXTT6=
EXTT7=
EXTT8=
EXTT9=
EXTT10=
EXTT11=
EXTT12=
EXTT13=
EXTT14=
EXTT15=
PLAYORDER=
